#!OML:ASF F:\VICON\USERDATA\INSTALL\rory3\rory3.ASF
:FULLY-SPECIFIED
:DEGREES
1986
root -4.78456 17.5493 3.31505 4.81396 5.84303 5.03429
lowerback 10.5959 0.351255 2.25211
upperback 1.21885 0.957115 4.39344
thorax -4.71445 0.472107 3.18864
lowerneck -30.5571 -12.5646 -12.2064
upperneck 3.6395 -14.0882 15.273
head 7.84796 -5.53226 4.85193
rclavicle -5.96354e-015 0
rhumerus 14.0918 -3.37367 -28.3745
rradius 58.2719
rwrist 35.1518
rhand -64.2516 -7.05093
rfingers 7.12502
rthumb -36.1893 -33.3207
lclavicle -5.96354e-015 0
lhumerus -40.8256 4.97415 76.7528
lradius 49.4976
lwrist -0.34008
lhand -19.7313 22.9154
lfingers 7.12502
lthumb 6.59917 52.7925
rfemur -17.5883 -4.52932 9.38379
rtibia 39.017
rfoot -20.9661 -2.89946
rtoes -2.91883
lfemur -13.9397 0.733574 -11.6426
ltibia 29.6933
lfoot -10.3338 -4.70361
ltoes -28.3153
1987
root -4.80331 17.5522 3.33755 4.84957 5.54652 5.1977
lowerback 10.301 0.419146 2.23765
upperback 1.28969 1.02441 4.35512
thorax -4.47773 0.505215 3.14586
lowerneck -30.4185 -12.5584 -12.2871
upperneck 3.54915 -14.0839 15.4459
head 7.82255 -5.52466 4.92679
rclavicle 3.77691e-014 2.38542e-014
rhumerus 15.3768 -5.19659 -28.3896
rradius 57.6927
rwrist 33.8331
rhand -63.3853 -6.09783
rfingers 7.12502
rthumb -35.3683 -32.5671
lclavicle 3.77691e-014 2.38542e-014
lhumerus -40.7681 5.07042 76.5332
lradius 49.5636
lwrist -0.723533
lhand -19.2436 23.217
lfingers 7.12502
lthumb 7.07005 53.079
rfemur -17.6677 -4.4601 9.26544
rtibia 39.1122
rfoot -20.963 -2.83274
rtoes -3.06889
lfemur -13.7779 0.970119 -12.1611
ltibia 29.6619
lfoot -10.6849 -4.88805
ltoes -25.712
1988
root -4.82436 17.5663 3.35629 4.86505 5.46434 5.30835
lowerback 10.1536 0.420624 2.32191
upperback 1.27183 1.02673 4.31085
thorax -4.41196 0.504569 3.05135
lowerneck -30.2424 -12.5691 -12.2591
upperneck 3.50531 -14.1326 15.4882
head 7.79323 -5.55281 4.93046
rclavicle -1.78906e-014 3.02153e-014
rhumerus 16.7209 -7.01619 -28.5696
rradius 57.0744
rwrist 32.7867
rhand -63.5549 -7.71902
rfingers 7.12502
rthumb -35.5291 -34.1499
lclavicle -1.78906e-014 3.02153e-014
lhumerus -40.8488 5.01751 76.3191
lradius 49.7651
lwrist -1.12293
lhand -18.6316 23.9136
lfingers 7.12502
lthumb 7.66079 53.7549
rfemur -17.6484 -4.5267 9.2238
rtibia 39.1759
rfoot -21.0164 -2.68922
rtoes -3.1795
lfemur -13.7359 1.09475 -12.5984
ltibia 29.524
lfoot -10.9247 -4.21626
ltoes -24.0464
1989
root -4.84712 17.5586 3.36132 4.84839 5.54288 5.34669
lowerback 10.165 0.366349 2.42109
upperback 1.23329 0.969651 4.33661
thorax -4.45546 0.474887 3.03063
lowerneck -30.2773 -12.5868 -12.1821
upperneck 3.62917 -14.1769 15.3628
head 7.82679 -5.57892 4.86584
rclavicle 1.82882e-014 8.90555e-014
rhumerus 18.1911 -8.79527 -28.7889
rradius 56.5659
rwrist 31.8074
rhand -64.1087 -10.9676
rfingers 7.12502
rthumb -36.0539 -37.2708
lclavicle 1.82882e-014 8.90555e-014
lhumerus -40.8993 4.9021 76.2283
lradius 49.9838
lwrist -0.956243
lhand -18.5649 24.3032
lfingers 7.12502
lthumb 7.7251 54.142
rfemur -17.652 -4.61467 9.27792
rtibia 39.2815
rfoot -21.0611 -2.62586
rtoes -2.93345
lfemur -13.451 1.19325 -12.8957
ltibia 29.2967
lfoot -11.2107 -2.80177
ltoes -24.5128
1990
root -4.87027 17.5549 3.36792 4.8 5.61032 5.40426
lowerback 10.1878 0.302862 2.45342
upperback 1.22509 0.892323 4.36816
thorax -4.47406 0.436426 3.0565
lowerneck -30.257 -12.567 -12.2617
upperneck 3.65925 -14.1426 15.4568
head 7.84558 -5.55575 4.91675
rclavicle -2.18663e-014 1.27222e-014
rhumerus 19.8541 -10.552 -29.092
rradius 56.0791
rwrist 30.9223
rhand -64.4846 -12.7049
rfingers 7.12502
rthumb -36.4099 -38.9196
lclavicle -2.18663e-014 1.27222e-014
lhumerus -40.8751 4.97641 76.0435
lradius 49.9785
lwrist -1.0251
lhand -18.4911 24.5562
lfingers 7.12502
lthumb 7.79631 54.3924
rfemur -17.6176 -4.63959 9.31395
rtibia 39.404
rfoot -21.182 -2.74293
rtoes -2.93098
lfemur -13.1268 1.05605 -13.1775
ltibia 28.9589
lfoot -11.2687 -0.948979
ltoes -24.9063
1991
root -4.8934 17.553 3.37604 4.78937 5.78747 5.45797
lowerback 10.205 0.218005 2.49455
upperback 1.16345 0.790454 4.40257
thorax -4.54456 0.385739 3.08436
lowerneck -30.1883 -12.5764 -12.4365
upperneck 3.73387 -14.1375 15.6316
head 7.89179 -5.54133 5.00442
rclavicle -7.95139e-016 3.49861e-014
rhumerus 21.5037 -12.1737 -29.351
rradius 55.6855
rwrist 30.3184
rhand -64.6022 -14.403
rfingers 7.12502
rthumb -36.5212 -40.5897
lclavicle -7.95139e-016 3.49861e-014
lhumerus -40.8682 4.98748 75.8736
lradius 49.7823
lwrist -1.01818
lhand -18.7032 24.0727
lfingers 7.12502
lthumb 7.59163 53.9165
rfemur -17.593 -4.7733 9.35869
rtibia 39.5851
rfoot -21.3459 -2.70008
rtoes -2.43218
lfemur -12.8739 0.737556 -13.4013
ltibia 28.4862
lfoot -11.0521 0.890355
ltoes -24.5655
1992
root -4.91846 17.5497 3.38391 4.80062 5.90173 5.45659
lowerback 10.1916 0.178023 2.51776
upperback 1.11697 0.743947 4.4428
thorax -4.58448 0.362797 3.12059
lowerneck -30.209 -12.5705 -12.2722
upperneck 3.75506 -14.1647 15.4714
head 7.87694 -5.56446 4.91898
rclavicle 3.97569e-016 -7.31528e-014
rhumerus 23.1499 -13.8534 -29.7677
rradius 55.3686
rwrist 30.0066
rhand -64.8253 -16.8768
rfingers 7.12502
rthumb -36.7323 -43.0099
lclavicle 3.97569e-016 -7.31528e-014
lhumerus -40.7383 4.96218 75.7308
lradius 49.561
lwrist -0.960059
lhand -19.4228 22.8915
lfingers 7.12502
lthumb 6.89702 52.7592
rfemur -17.6289 -4.91068 9.47437
rtibia 39.7251
rfoot -21.4495 -2.66674
rtoes -2.75053
lfemur -12.626 0.373349 -13.506
ltibia 27.9408
lfoot -10.7644 2.52179
ltoes -24.8585
1993
root -4.94025 17.5432 3.39431 4.7441 5.87587 5.41545
lowerback 10.1617 0.203026 2.60845
upperback 1.14028 0.784477 4.44589
thorax -4.5437 0.381212 3.06656
lowerneck -30.2491 -12.5491 -12.0054
upperneck 3.70881 -14.1902 15.2649
head 7.82994 -5.59017 4.80306
rclavicle -1.19271e-015 4.45278e-014
rhumerus 24.9279 -15.6845 -30.3312
rradius 55.0816
rwrist 29.6731
rhand -64.8416 -17.9329
rfingers 7.12502
rthumb -36.7477 -44.0622
lclavicle -1.19271e-015 4.45278e-014
lhumerus -40.561 4.88726 75.5262
lradius 49.6111
lwrist -1.19346
lhand -20.0066 22.6941
lfingers 7.12502
lthumb 6.3334 52.5794
rfemur -17.6074 -4.93386 9.60238
rtibia 39.8422
rfoot -21.5996 -2.60265
rtoes -3.13901
lfemur -12.211 0.0974829 -13.5483
ltibia 27.3897
lfoot -10.5942 3.6616
ltoes -25.209
1994
root -4.95974 17.5408 3.40933 4.72286 5.85539 5.28107
lowerback 10.0191 0.203628 2.83118
upperback 1.18646 0.800214 4.467
thorax -4.41362 0.385533 2.9599
lowerneck -30.3663 -12.5529 -11.8527
upperneck 3.64394 -14.2154 15.1811
head 7.80796 -5.60316 4.74513
rclavicle -8.34896e-015 -2.54444e-014
rhumerus 27.1142 -17.5614 -31.1804
rradius 54.5951
rwrist 29.3138
rhand -64.6839 -17.388
rfingers 7.12502
rthumb -36.5985 -43.5552
lclavicle -8.34896e-015 -2.54444e-014
lhumerus -40.3495 4.78721 75.3726
lradius 49.7095
lwrist -1.10245
lhand -20.2107 22.5127
lfingers 7.12502
lthumb 6.13641 52.4038
rfemur -17.5944 -4.98901 9.83041
rtibia 39.9332
rfoot -21.7244 -2.56733
rtoes -3.54867
lfemur -11.8629 -0.050685 -13.4783
ltibia 26.882
lfoot -10.4611 4.23653
ltoes -24.4777
1995
root -4.97953 17.54 3.42377 4.75803 5.87004 5.35196
lowerback 9.93305 0.196127 2.82127
upperback 1.13818 0.787246 4.47561
thorax -4.416 0.379398 2.97647
lowerneck -30.3933 -12.591 -11.9425
upperneck 3.65859 -14.2446 15.2642
head 7.83531 -5.60863 4.78047
rclavicle -1.70955e-014 -7.31528e-014
rhumerus 29.8131 -19.5773 -32.6932
rradius 53.8951
rwrist 29.5318
rhand -64.3926 -15.8393
rfingers 7.12502
rthumb -36.3228 -42.0758
lclavicle -1.70955e-014 -7.31528e-014
lhumerus -40.2461 4.64967 75.3028
lradius 49.6722
lwrist -0.981734
lhand -20.0808 22.4791
lfingers 7.12502
lthumb 6.26183 52.3665
rfemur -17.6107 -5.13941 9.82896
rtibia 40.0148
rfoot -21.7612 -2.49303
rtoes -3.61724
lfemur -11.6128 -0.21259 -13.6173
ltibia 26.4374
lfoot -10.3027 4.68846
ltoes -23.6899
